<?xml version="1.0" encoding="UTF-8" standalone="no"?>
<svg
   version="1.1"
   viewBox="0.00 0.00 1024.00 1024.00"
   id="svg54"
   sodipodi:docname="aurabilio.svg"
   inkscape:version="1.4.2 (f4327f4, 2025-05-13)"
   xmlns:inkscape="http://www.inkscape.org/namespaces/inkscape"
   xmlns:sodipodi="http://sodipodi.sourceforge.net/DTD/sodipodi-0.dtd"
   xmlns="http://www.w3.org/2000/svg"
   xmlns:svg="http://www.w3.org/2000/svg">
  <defs
     id="defs54" />
  <sodipodi:namedview
     id="namedview54"
     pagecolor="#505050"
     bordercolor="#eeeeee"
     borderopacity="1"
     inkscape:showpageshadow="0"
     inkscape:pageopacity="0"
     inkscape:pagecheckerboard="0"
     inkscape:deskcolor="#505050"
     inkscape:zoom="0.5"
     inkscape:cx="399"
     inkscape:cy="243"
     inkscape:window-width="1360"
     inkscape:window-height="697"
     inkscape:window-x="-8"
     inkscape:window-y="-8"
     inkscape:window-maximized="1"
     inkscape:current-layer="svg54" />
  <g
     stroke-width="2.00"
     fill="none"
     stroke-linecap="butt"
     id="g30">
    <path
       stroke="#8085a9"
       vector-effect="non-scaling-stroke"
       d="   M 326.89 411.08   C 326.89 451.65 326.87 492.15 326.86 532.60   C 326.86 533.16 327.16 533.67 327.65 533.94   C 388.98 567.47 450.27 600.99 511.54 634.49   C 511.64 634.54 511.73 634.57 511.82 634.57   C 511.91 634.57 512.01 634.54 512.10 634.49   C 573.38 601.01 634.69 567.51 696.03 534.00   C 696.52 533.73 696.82 533.22 696.82 532.66   C 696.82 492.21 696.82 451.70 696.82 411.14   C 696.83 370.57 696.84 330.06 696.86 289.61   C 696.86 289.05 696.55 288.54 696.06 288.28   C 634.74 254.74 573.44 221.23 512.17 187.73   C 512.07 187.67 511.98 187.65 511.89 187.65   C 511.80 187.65 511.71 187.67 511.61 187.73   C 450.33 221.21 389.02 254.71 327.69 288.22   C 327.20 288.49 326.89 289.00 326.89 289.56   C 326.90 330.01 326.90 370.51 326.89 411.08"
       id="path1" />
    <path
       stroke="#8085a9"
       vector-effect="non-scaling-stroke"
       d="   M 615.1929 682.9952   C 615.05 689.97 620.80 695.76 628.0453 695.9072   C 635.29 696.06 641.28 690.52 641.4271 683.5448   C 641.57 676.57 635.82 670.78 628.5747 670.6328   C 621.33 670.48 615.34 676.02 615.1929 682.9952"
       id="path2" />
    <path
       stroke="#8085a9"
       vector-effect="non-scaling-stroke"
       d="   M 724.2177 682.0165   C 723.54 675.07 717.17 670.02 709.9975 670.7203   C 702.82 671.42 697.56 677.62 698.2423 684.5635   C 698.92 691.51 705.29 696.56 712.4625 695.8597   C 719.64 695.16 724.90 688.96 724.2177 682.0165"
       id="path3" />
    <path
       stroke="#8085a9"
       vector-effect="non-scaling-stroke"
       d="   M 542.46 714.29   C 542.34 714.40 542.14 714.31 542.14 714.14   L 542.14 674.78   C 542.14 674.43 541.86 674.15 541.51 674.15   L 522.17 674.15   C 522.00 674.15 521.87 674.28 521.87 674.45   L 521.87 784.86   C 521.87 785.15 522.11 785.39 522.41 785.39   L 540.41 785.39   C 540.63 785.39 540.82 785.23 540.84 785.01   L 541.57 777.20   C 541.61 776.79 542.10 776.62 542.39 776.91   C 557.58 792.35 581.79 789.81 594.76 773.19   C 602.17 763.69 605.10 752.37 603.57 739.22   C 602.12 726.84 594.01 713.91 582.81 708.66   C 567.99 701.71 554.54 703.59 542.46 714.29"
       id="path4" />
    <path
       stroke="#8085a9"
       vector-effect="non-scaling-stroke"
       d="   M 680.31 674.66   C 680.31 674.37 680.07 674.13 679.78 674.13   L 660.46 674.13   C 660.17 674.13 659.93 674.37 659.93 674.66   L 659.93 784.88   C 659.93 785.17 660.17 785.41 660.46 785.41   L 679.78 785.41   C 680.07 785.41 680.31 785.17 680.31 784.88   L 680.31 674.66"
       id="path5" />
    <path
       stroke="#8085a9"
       vector-effect="non-scaling-stroke"
       d="   M 221.94 677.38   C 221.67 677.38 221.44 677.54 221.34 677.79   L 179.64 784.58   C 179.48 785.00 179.79 785.45 180.24 785.45   L 201.88 785.45   C 202.16 785.45 202.40 785.28 202.49 785.02   L 210.30 762.40   C 210.39 762.14 210.63 761.97 210.91 761.97   L 253.14 761.97   C 253.41 761.97 253.64 762.13 253.74 762.38   L 262.51 785.03   C 262.61 785.28 262.84 785.44 263.11 785.44   L 284.29 785.44   C 284.74 785.44 285.05 784.99 284.88 784.57   L 243.53 677.79   C 243.43 677.54 243.20 677.38 242.93 677.38   L 221.94 677.38"
       id="path6" />
    <path
       stroke="#979fc0"
       vector-effect="non-scaling-stroke"
       d="   M 836.28 684.56   L 836.28 695.21   C 836.28 695.64 836.62 695.98 837.05 695.98   L 837.71 695.98   C 838.11 695.98 838.44 695.65 838.44 695.24   L 838.44 681.27   C 838.44 679.96 836.70 679.48 836.05 680.62   L 830.41 690.39   C 830.20 690.75 829.67 690.74 829.49 690.37   L 824.66 680.74   C 823.92 679.27 821.71 679.80 821.71 681.44   L 821.71 695.27   C 821.71 695.67 822.03 696.00 822.43 696.00   L 823.21 696.00   C 823.60 696.00 823.91 695.69 823.91 695.30   L 823.91 685.04   C 823.91 684.73 824.32 684.64 824.46 684.91   L 829.30 694.56   C 829.63 695.22 830.57 695.22 830.90 694.56   L 835.93 684.48   C 836.02 684.31 836.28 684.37 836.28 684.56"
       id="path7" />
    <path
       stroke="#979fc0"
       vector-effect="non-scaling-stroke"
       d="   M 810.83 695.89   C 810.84 695.89 811.04 695.87 811.42 695.84   C 811.70 695.82 811.91 695.59 811.91 695.32   L 811.91 683.05   C 811.91 682.69 812.20 682.40 812.55 682.40   L 816.77 682.40   C 817.21 682.40 817.57 682.04 817.57 681.60   L 817.57 681.11   C 817.57 680.70 817.22 680.36 816.81 680.38   C 814.99 680.45 813.00 680.44 810.84 680.34   C 808.68 680.44 806.69 680.45 804.87 680.37   C 804.46 680.35 804.11 680.68 804.11 681.10   L 804.11 681.59   C 804.11 682.03 804.47 682.39 804.91 682.39   L 809.13 682.40   C 809.48 682.40 809.77 682.69 809.77 683.05   L 809.74 695.32   C 809.74 695.59 809.95 695.82 810.23 695.84   C 810.61 695.87 810.81 695.89 810.83 695.89"
       id="path8" />
    <path
       stroke="#8085a9"
       vector-effect="non-scaling-stroke"
       d="   M 439.44 730.61   L 443.10 729.28   C 443.35 729.19 443.58 729.07 443.80 728.93   C 455.25 721.67 482.21 714.12 483.17 736.74   C 483.19 737.08 482.90 737.36 482.55 737.34   C 476.02 736.97 470.08 736.84 464.75 736.94   C 456.93 737.08 444.99 739.53 439.05 744.98   C 429.59 753.64 429.35 768.75 437.61 778.56   C 447.17 789.93 467.61 789.19 478.58 781.15   C 480.12 780.03 481.11 778.79 482.54 777.00   C 482.86 776.60 483.50 776.83 483.50 777.34   L 483.50 784.80   C 483.50 785.12 483.76 785.38 484.08 785.38   L 502.42 785.38   C 502.73 785.38 502.98 785.12 502.98 784.81   C 502.83 768.99 502.84 754.17 503.01 740.35   C 503.10 732.65 502.53 726.98 501.30 723.33   C 494.56 703.45 468.68 701.94 451.32 707.40   C 448.92 708.15 444.91 709.63 439.29 711.82   C 439.03 711.92 438.86 712.17 438.86 712.45   L 438.86 730.20   C 438.86 730.50 439.16 730.71 439.44 730.61"
       id="path9" />
    <path
       stroke="#8085a9"
       vector-effect="non-scaling-stroke"
       d="   M 399.73 706.48   L 381.68 706.48   C 381.33 706.48 381.05 706.77 381.05 707.12   L 381.05 784.93   C 381.05 785.20 381.26 785.41 381.53 785.41   L 400.92 785.41   C 401.22 785.41 401.46 785.17 401.46 784.87   C 401.41 769.25 401.46 755.99 401.62 745.09   C 401.69 740.36 404.00 732.82 408.38 729.55   C 413.49 725.73 420.55 725.65 427.05 726.42   C 427.46 726.47 427.82 726.15 427.82 725.74   L 427.82 705.85   C 427.82 705.46 427.53 705.12 427.14 705.07   C 418.27 704.02 410.60 706.36 404.14 712.07   C 402.70 713.34 402.26 714.99 400.91 716.14   C 400.67 716.34 400.30 716.17 400.30 715.86   L 400.30 707.05   C 400.30 706.74 400.04 706.48 399.73 706.48"
       id="path10" />
    <path
       stroke="#8085a9"
       vector-effect="non-scaling-stroke"
       d="   M 736.3043 743.7564   C 735.15 766.58 753.16 786.04 776.5265 787.2270   C 799.90 788.41 819.78 770.87 820.9357 748.0436   C 822.09 725.22 804.08 705.76 780.7135 704.5730   C 757.34 703.39 737.46 720.93 736.3043 743.7564"
       id="path11" />
    <path
       stroke="#8085a9"
       vector-effect="non-scaling-stroke"
       d="   M 291.57 707.19   C 291.50 728.94 291.47 745.29 291.50 756.24   C 291.53 768.13 295.72 779.96 307.06 784.74   C 319.42 789.95 334.17 787.29 342.43 776.13   C 342.68 775.80 343.21 775.97 343.21 776.39   L 343.21 784.67   C 343.21 785.06 343.53 785.38 343.92 785.38   L 362.15 785.38   C 362.39 785.38 362.58 785.19 362.58 784.95   L 362.58 707.04   C 362.58 706.73 362.33 706.48 362.02 706.48   L 342.57 706.48   C 342.28 706.48 342.04 706.72 342.04 707.01   C 342.12 730.78 342.16 743.25 342.16 744.43   C 342.15 751.06 341.89 755.10 341.37 756.57   C 338.58 764.35 333.27 768.33 325.45 768.50   C 321.59 768.59 317.64 766.90 315.13 763.90   C 312.59 760.87 311.85 756.84 311.85 752.99   C 311.84 739.92 311.82 724.64 311.80 707.15   C 311.80 706.78 311.50 706.48 311.13 706.48   L 292.29 706.48   C 291.90 706.48 291.58 706.80 291.57 707.19"
       id="path12" />
    <path
       stroke="#8085a9"
       vector-effect="non-scaling-stroke"
       d="   M 638.95 706.90   C 638.95 706.72 638.80 706.57 638.62 706.57   L 618.74 706.57   C 618.56 706.57 618.41 706.72 618.41 706.90   L 618.41 785.08   C 618.41 785.26 618.56 785.41 618.74 785.41   L 638.62 785.41   C 638.80 785.41 638.95 785.26 638.95 785.08   L 638.95 706.90"
       id="path13" />
    <path
       stroke="#8085a9"
       vector-effect="non-scaling-stroke"
       d="   M 721.7981 706.9781   C 721.80 706.74 721.60 706.54 721.3588 706.5373   L 701.6189 706.5028   C 701.38 706.50 701.18 706.70 701.1781 706.9421   L 701.0419 784.9619   C 701.04 785.20 701.24 785.40 701.4812 785.4027   L 721.2211 785.4372   C 721.46 785.44 721.66 785.24 721.6619 784.9979   L 721.7981 706.9781"
       id="path14" />
    <path
       stroke="#4c84a6"
       vector-effect="non-scaling-stroke"
       d="   M 399.27 432.28   C 396.64 436.22 393.99 440.24 391.32 444.34   C 390.38 445.78 389.90 447.33 389.89 449.00   C 389.78 461.63 389.80 476.63 389.94 494.02   C 389.95 495.11 390.13 496.11 390.48 497.02   C 390.60 497.34 390.80 497.62 391.07 497.83   C 392.78 499.18 394.45 500.29 396.06 501.18   C 407.03 507.19 417.92 513.13 428.73 519.00   C 432.64 521.13 435.45 522.35 437.15 522.65"
       id="path15" />
    <path
       stroke="#182569"
       vector-effect="non-scaling-stroke"
       d="   M 437.15 522.65   C 438.11 523.57 439.03 524.27 439.90 524.76   C 466.49 539.62 488.82 551.92 506.87 561.65   C 508.38 562.46 509.76 563.16 511.01 563.73   C 511.64 564.01 512.38 563.98 512.98 563.63   C 520.76 559.14 527.65 555.32 533.64 552.15   C 546.42 545.40 559.14 538.53 571.79 531.54   C 575.72 529.37 579.86 527.30 584.23 525.32   C 584.88 525.02 584.94 524.13 584.34 523.75   C 583.04 522.94 582.65 522.13 583.16 521.32"
       id="path16" />
    <path
       stroke="#4c84a6"
       vector-effect="non-scaling-stroke"
       d="   M 583.16 521.32   L 586.56 522.89   C 587.00 523.09 587.50 523.07 587.92 522.84   C 612.61 509.21 626.39 501.59 629.24 499.99   C 630.29 499.40 631.39 498.61 632.54 497.64   C 632.96 497.29 633.23 496.79 633.31 496.26   C 633.55 494.70 633.67 493.28 633.67 491.99   C 633.69 479.60 633.69 465.54 633.66 449.79   C 633.65 447.46 633.01 445.79 631.82 443.94   C 629.55 440.40 627.21 437.02 624.80 433.79"
       id="path17" />
    <path
       stroke="#8085a9"
       vector-effect="non-scaling-stroke"
       d="   M 624.80 433.79   C 592.31 382.70 559.87 331.67 527.46 280.70   C 523.12 273.86 520.14 268.33 515.61 262.04   C 511.74 256.66 507.96 261.72 505.96 265.18   C 500.89 273.96 496.73 279.95 489.80 290.80   C 459.69 337.92 429.52 385.08 399.27 432.28"
       id="path18" />
    <path
       stroke="#ccfefd"
       vector-effect="non-scaling-stroke"
       d="   M 624.80 433.79   L 620.84 431.96   C 620.17 431.66 619.45 431.50 618.72 431.50   C 603.54 431.55 592.97 431.51 587.00 431.38   C 581.33 431.25 576.07 431.52 571.22 432.17"
       id="path19" />
    <path
       stroke="#8085a9"
       vector-effect="non-scaling-stroke"
       d="   M 571.22 432.17   C 553.33 403.34 535.38 374.41 517.37 345.36   C 515.77 342.79 514.05 340.72 512.48 338.28   C 512.32 338.03 511.96 338.00 511.76 338.21   C 510.15 339.89 508.70 341.78 507.40 343.89   C 489.39 373.09 471.25 402.21 452.98 431.25"
       id="path20" />
    <path
       stroke="#ccfefd"
       vector-effect="non-scaling-stroke"
       d="   M 452.98 431.25   C 452.31 431.09 451.63 431.02 450.94 431.04   C 448.53 431.12 446.14 431.18 443.75 431.21   C 433.23 431.37 422.71 431.50 412.19 431.59   C 412.11 431.59 410.49 431.53 407.32 431.40   C 404.69 431.29 402.01 431.58 399.27 432.28"
       id="path21" />
    <path
       stroke="#4c84a6"
       vector-effect="non-scaling-stroke"
       d="   M 571.22 432.17   C 580.63 446.76 589.89 461.31 598.98 475.81   C 600.61 478.42 600.75 482.78 596.56 482.64   C 593.07 482.53 580.05 482.51 557.50 482.60   C 555.85 482.61 554.96 482.11 554.84 481.10"
       id="path22" />
    <path
       stroke="#8085a9"
       vector-effect="non-scaling-stroke"
       d="   M 554.84 481.10   L 513.21 414.19   C 512.80 413.54 511.85 413.53 511.44 414.18   L 468.64 481.72"
       id="path23" />
    <path
       stroke="#4c84a6"
       vector-effect="non-scaling-stroke"
       d="   M 468.64 481.72   L 468.02 482.15   C 467.69 482.38 467.29 482.51 466.89 482.51   L 426.22 482.51   C 425.77 482.51 425.33 482.34 425.00 482.03   C 423.19 480.32 423.01 478.37 424.44 476.16   C 434.11 461.30 443.63 446.33 452.98 431.25"
       id="path24" />
    <path
       stroke="#649ebd"
       vector-effect="non-scaling-stroke"
       d="   M 583.16 521.32   L 511.96 482.50   C 511.74 482.38 511.47 482.38 511.25 482.50   L 437.15 522.65"
       id="path25" />
    <path
       stroke="#ccfefd"
       vector-effect="non-scaling-stroke"
       d="   M 554.84 481.10   C 543.57 480.99 532.54 481.00 521.75 481.13   C 519.05 481.16 516.52 481.19 514.16 481.22   C 512.36 481.25 508.10 481.17 501.38 481.00   C 490.98 480.73 482.92 481.04 473.31 481.05   C 472.80 481.05 472.03 481.18 470.99 481.45   C 470.20 481.65 469.41 481.74 468.64 481.72"
       id="path26" />
    <path
       stroke="#8085a9"
       vector-effect="non-scaling-stroke"
       d="   M 561.5689 722.7590   C 549.99 723.08 540.89 733.62 541.2482 746.2955   C 541.60 758.97 551.27 768.98 562.8511 768.6610   C 574.43 768.34 583.53 757.80 583.1718 745.1245   C 582.82 732.45 573.15 722.44 561.5689 722.7590"
       id="path27" />
    <path
       stroke="#8085a9"
       vector-effect="non-scaling-stroke"
       d="   M 217.48 742.60   C 217.40 742.81 217.55 743.04 217.78 743.04   L 246.50 743.04   C 246.73 743.04 246.88 742.81 246.80 742.60   L 232.44 704.19   C 232.34 703.91 231.94 703.91 231.84 704.19   L 217.48 742.60"
       id="path28" />
    <path
       stroke="#8085a9"
       vector-effect="non-scaling-stroke"
       d="   M 483.19 751.44   C 483.22 751.16 483.01 750.91 482.73 750.90   C 476.28 750.71 469.87 750.98 463.49 751.71   C 461.51 751.94 459.44 752.55 457.29 753.55   C 451.90 756.06 450.37 763.24 454.48 767.52   C 457.30 770.45 460.91 771.76 465.31 771.46   C 472.72 770.95 478.07 767.45 481.38 760.97   C 482.84 758.10 482.83 754.90 483.19 751.44"
       id="path29" />
    <path
       stroke="#8085a9"
       vector-effect="non-scaling-stroke"
       d="   M 778.6397 723.0106   C 766.77 722.93 757.07 733.10 756.9805 745.7399   C 756.89 758.38 766.45 768.69 778.3203 768.7694   C 790.19 768.85 799.89 758.68 799.9795 746.0401   C 800.07 733.40 790.51 723.09 778.6397 723.0106"
       id="path30" />
  </g>
  <g
     fill="#ffffff"
     id="g37">
    <path
       d="   M 1024.00 0.00   L 1024.00 1024.00   L 0.00 1024.00   L 0.00 0.00   L 1024.00 0.00   Z   M 326.89 411.08   C 326.89 451.65 326.87 492.15 326.86 532.60   C 326.86 533.16 327.16 533.67 327.65 533.94   C 388.98 567.47 450.27 600.99 511.54 634.49   C 511.64 634.54 511.73 634.57 511.82 634.57   C 511.91 634.57 512.01 634.54 512.10 634.49   C 573.38 601.01 634.69 567.51 696.03 534.00   C 696.52 533.73 696.82 533.22 696.82 532.66   C 696.82 492.21 696.82 451.70 696.82 411.14   C 696.83 370.57 696.84 330.06 696.86 289.61   C 696.86 289.05 696.55 288.54 696.06 288.28   C 634.74 254.74 573.44 221.23 512.17 187.73   C 512.07 187.67 511.98 187.65 511.89 187.65   C 511.80 187.65 511.71 187.67 511.61 187.73   C 450.33 221.21 389.02 254.71 327.69 288.22   C 327.20 288.49 326.89 289.00 326.89 289.56   C 326.90 330.01 326.90 370.51 326.89 411.08   Z   M 615.1929 682.9952   C 615.05 689.97 620.80 695.76 628.0453 695.9072   C 635.29 696.06 641.28 690.52 641.4271 683.5448   C 641.57 676.57 635.82 670.78 628.5747 670.6328   C 621.33 670.48 615.34 676.02 615.1929 682.9952   Z   M 724.2177 682.0165   C 723.54 675.07 717.17 670.02 709.9975 670.7203   C 702.82 671.42 697.56 677.62 698.2423 684.5635   C 698.92 691.51 705.29 696.56 712.4625 695.8597   C 719.64 695.16 724.90 688.96 724.2177 682.0165   Z   M 542.46 714.29   C 542.34 714.40 542.14 714.31 542.14 714.14   L 542.14 674.78   C 542.14 674.43 541.86 674.15 541.51 674.15   L 522.17 674.15   C 522.00 674.15 521.87 674.28 521.87 674.45   L 521.87 784.86   C 521.87 785.15 522.11 785.39 522.41 785.39   L 540.41 785.39   C 540.63 785.39 540.82 785.23 540.84 785.01   L 541.57 777.20   C 541.61 776.79 542.10 776.62 542.39 776.91   C 557.58 792.35 581.79 789.81 594.76 773.19   C 602.17 763.69 605.10 752.37 603.57 739.22   C 602.12 726.84 594.01 713.91 582.81 708.66   C 567.99 701.71 554.54 703.59 542.46 714.29   Z   M 680.31 674.66   C 680.31 674.37 680.07 674.13 679.78 674.13   L 660.46 674.13   C 660.17 674.13 659.93 674.37 659.93 674.66   L 659.93 784.88   C 659.93 785.17 660.17 785.41 660.46 785.41   L 679.78 785.41   C 680.07 785.41 680.31 785.17 680.31 784.88   L 680.31 674.66   Z   M 221.94 677.38   C 221.67 677.38 221.44 677.54 221.34 677.79   L 179.64 784.58   C 179.48 785.00 179.79 785.45 180.24 785.45   L 201.88 785.45   C 202.16 785.45 202.40 785.28 202.49 785.02   L 210.30 762.40   C 210.39 762.14 210.63 761.97 210.91 761.97   L 253.14 761.97   C 253.41 761.97 253.64 762.13 253.74 762.38   L 262.51 785.03   C 262.61 785.28 262.84 785.44 263.11 785.44   L 284.29 785.44   C 284.74 785.44 285.05 784.99 284.88 784.57   L 243.53 677.79   C 243.43 677.54 243.20 677.38 242.93 677.38   L 221.94 677.38   Z   M 836.28 684.56   L 836.28 695.21   C 836.28 695.64 836.62 695.98 837.05 695.98   L 837.71 695.98   C 838.11 695.98 838.44 695.65 838.44 695.24   L 838.44 681.27   C 838.44 679.96 836.70 679.48 836.05 680.62   L 830.41 690.39   C 830.20 690.75 829.67 690.74 829.49 690.37   L 824.66 680.74   C 823.92 679.27 821.71 679.80 821.71 681.44   L 821.71 695.27   C 821.71 695.67 822.03 696.00 822.43 696.00   L 823.21 696.00   C 823.60 696.00 823.91 695.69 823.91 695.30   L 823.91 685.04   C 823.91 684.73 824.32 684.64 824.46 684.91   L 829.30 694.56   C 829.63 695.22 830.57 695.22 830.90 694.56   L 835.93 684.48   C 836.02 684.31 836.28 684.37 836.28 684.56   Z   M 810.83 695.89   C 810.84 695.89 811.04 695.87 811.42 695.84   C 811.70 695.82 811.91 695.59 811.91 695.32   L 811.91 683.05   C 811.91 682.69 812.20 682.40 812.55 682.40   L 816.77 682.40   C 817.21 682.40 817.57 682.04 817.57 681.60   L 817.57 681.11   C 817.57 680.70 817.22 680.36 816.81 680.38   C 814.99 680.45 813.00 680.44 810.84 680.34   C 808.68 680.44 806.69 680.45 804.87 680.37   C 804.46 680.35 804.11 680.68 804.11 681.10   L 804.11 681.59   C 804.11 682.03 804.47 682.39 804.91 682.39   L 809.13 682.40   C 809.48 682.40 809.77 682.69 809.77 683.05   L 809.74 695.32   C 809.74 695.59 809.95 695.82 810.23 695.84   C 810.61 695.87 810.81 695.89 810.83 695.89   Z   M 439.44 730.61   L 443.10 729.28   C 443.35 729.19 443.58 729.07 443.80 728.93   C 455.25 721.67 482.21 714.12 483.17 736.74   C 483.19 737.08 482.90 737.36 482.55 737.34   C 476.02 736.97 470.08 736.84 464.75 736.94   C 456.93 737.08 444.99 739.53 439.05 744.98   C 429.59 753.64 429.35 768.75 437.61 778.56   C 447.17 789.93 467.61 789.19 478.58 781.15   C 480.12 780.03 481.11 778.79 482.54 777.00   C 482.86 776.60 483.50 776.83 483.50 777.34   L 483.50 784.80   C 483.50 785.12 483.76 785.38 484.08 785.38   L 502.42 785.38   C 502.73 785.38 502.98 785.12 502.98 784.81   C 502.83 768.99 502.84 754.17 503.01 740.35   C 503.10 732.65 502.53 726.98 501.30 723.33   C 494.56 703.45 468.68 701.94 451.32 707.40   C 448.92 708.15 444.91 709.63 439.29 711.82   C 439.03 711.92 438.86 712.17 438.86 712.45   L 438.86 730.20   C 438.86 730.50 439.16 730.71 439.44 730.61   Z   M 399.73 706.48   L 381.68 706.48   C 381.33 706.48 381.05 706.77 381.05 707.12   L 381.05 784.93   C 381.05 785.20 381.26 785.41 381.53 785.41   L 400.92 785.41   C 401.22 785.41 401.46 785.17 401.46 784.87   C 401.41 769.25 401.46 755.99 401.62 745.09   C 401.69 740.36 404.00 732.82 408.38 729.55   C 413.49 725.73 420.55 725.65 427.05 726.42   C 427.46 726.47 427.82 726.15 427.82 725.74   L 427.82 705.85   C 427.82 705.46 427.53 705.12 427.14 705.07   C 418.27 704.02 410.60 706.36 404.14 712.07   C 402.70 713.34 402.26 714.99 400.91 716.14   C 400.67 716.34 400.30 716.17 400.30 715.86   L 400.30 707.05   C 400.30 706.74 400.04 706.48 399.73 706.48   Z   M 736.3043 743.7564   C 735.15 766.58 753.16 786.04 776.5265 787.2270   C 799.90 788.41 819.78 770.87 820.9357 748.0436   C 822.09 725.22 804.08 705.76 780.7135 704.5730   C 757.34 703.39 737.46 720.93 736.3043 743.7564   Z   M 291.57 707.19   C 291.50 728.94 291.47 745.29 291.50 756.24   C 291.53 768.13 295.72 779.96 307.06 784.74   C 319.42 789.95 334.17 787.29 342.43 776.13   C 342.68 775.80 343.21 775.97 343.21 776.39   L 343.21 784.67   C 343.21 785.06 343.53 785.38 343.92 785.38   L 362.15 785.38   C 362.39 785.38 362.58 785.19 362.58 784.95   L 362.58 707.04   C 362.58 706.73 362.33 706.48 362.02 706.48   L 342.57 706.48   C 342.28 706.48 342.04 706.72 342.04 707.01   C 342.12 730.78 342.16 743.25 342.16 744.43   C 342.15 751.06 341.89 755.10 341.37 756.57   C 338.58 764.35 333.27 768.33 325.45 768.50   C 321.59 768.59 317.64 766.90 315.13 763.90   C 312.59 760.87 311.85 756.84 311.85 752.99   C 311.84 739.92 311.82 724.64 311.80 707.15   C 311.80 706.78 311.50 706.48 311.13 706.48   L 292.29 706.48   C 291.90 706.48 291.58 706.80 291.57 707.19   Z   M 638.95 706.90   C 638.95 706.72 638.80 706.57 638.62 706.57   L 618.74 706.57   C 618.56 706.57 618.41 706.72 618.41 706.90   L 618.41 785.08   C 618.41 785.26 618.56 785.41 618.74 785.41   L 638.62 785.41   C 638.80 785.41 638.95 785.26 638.95 785.08   L 638.95 706.90   Z   M 721.7981 706.9781   C 721.80 706.74 721.60 706.54 721.3588 706.5373   L 701.6189 706.5028   C 701.38 706.50 701.18 706.70 701.1781 706.9421   L 701.0419 784.9619   C 701.04 785.20 701.24 785.40 701.4812 785.4027   L 721.2211 785.4372   C 721.46 785.44 721.66 785.24 721.6619 784.9979   L 721.7981 706.9781   Z"
       id="path31" />
    <path
       d="   M 624.80 433.79   L 620.84 431.96   C 620.17 431.66 619.45 431.50 618.72 431.50   C 603.54 431.55 592.97 431.51 587.00 431.38   C 581.33 431.25 576.07 431.52 571.22 432.17   C 553.33 403.34 535.38 374.41 517.37 345.36   C 515.77 342.79 514.05 340.72 512.48 338.28   C 512.32 338.03 511.96 338.00 511.76 338.21   C 510.15 339.89 508.70 341.78 507.40 343.89   C 489.39 373.09 471.25 402.21 452.98 431.25   C 452.31 431.09 451.63 431.02 450.94 431.04   C 448.53 431.12 446.14 431.18 443.75 431.21   C 433.23 431.37 422.71 431.50 412.19 431.59   C 412.11 431.59 410.49 431.53 407.32 431.40   C 404.69 431.29 402.01 431.58 399.27 432.28   C 429.52 385.08 459.69 337.92 489.80 290.80   C 496.73 279.95 500.89 273.96 505.96 265.18   C 507.96 261.72 511.74 256.66 515.61 262.04   C 520.14 268.33 523.12 273.86 527.46 280.70   C 559.87 331.67 592.31 382.70 624.80 433.79   Z"
       id="path32" />
    <path
       d="   M 554.84 481.10   C 543.57 480.99 532.54 481.00 521.75 481.13   C 519.05 481.16 516.52 481.19 514.16 481.22   C 512.36 481.25 508.10 481.17 501.38 481.00   C 490.98 480.73 482.92 481.04 473.31 481.05   C 472.80 481.05 472.03 481.18 470.99 481.45   C 470.20 481.65 469.41 481.74 468.64 481.72   L 511.44 414.18   C 511.85 413.53 512.80 413.54 513.21 414.19   L 554.84 481.10   Z"
       id="path33" />
    <path
       d="   M 217.48 742.60   L 231.84 704.19   C 231.94 703.91 232.34 703.91 232.44 704.19   L 246.80 742.60   C 246.88 742.81 246.73 743.04 246.50 743.04   L 217.78 743.04   C 217.55 743.04 217.40 742.81 217.48 742.60   Z"
       id="path34" />
    <path
       d="   M 561.5689 722.7590   C 573.15 722.44 582.82 732.45 583.1718 745.1245   C 583.53 757.80 574.43 768.34 562.8511 768.6610   C 551.27 768.98 541.60 758.97 541.2482 746.2955   C 540.89 733.62 549.99 723.08 561.5689 722.7590   Z"
       id="path35" />
    <path
       d="   M 778.6397 723.0106   C 790.51 723.09 800.07 733.40 799.9795 746.0401   C 799.89 758.68 790.19 768.85 778.3203 768.7694   C 766.45 768.69 756.89 758.38 756.9805 745.7399   C 757.07 733.10 766.77 722.93 778.6397 723.0106   Z"
       id="path36" />
    <path
       d="   M 483.19 751.44   C 482.83 754.90 482.84 758.10 481.38 760.97   C 478.07 767.45 472.72 770.95 465.31 771.46   C 460.91 771.76 457.30 770.45 454.48 767.52   C 450.37 763.24 451.90 756.06 457.29 753.55   C 459.44 752.55 461.51 751.94 463.49 751.71   C 469.87 750.98 476.28 750.71 482.73 750.90   C 483.01 750.91 483.22 751.16 483.19 751.44   Z"
       id="path37" />
  </g>
  <g
     fill="#000a52"
     id="g50">
    <path
       d="m 511.89,187.65 c 0.09,0 0.18,0.02 0.28,0.08 61.27,33.5 122.57,67.01 183.89,100.55 0.49,0.26 0.8,0.77 0.8,1.33 -0.02,40.45 -0.03,80.96 -0.04,121.53 v 121.52 c 0,0.56 -0.3,1.07 -0.79,1.34 -61.34,33.51 -122.65,67.01 -183.93,100.49 -0.09,0.05 -0.19,0.08 -0.28,0.08 -0.09,0 -0.18,-0.03 -0.28,-0.08 -61.27,-33.5 -122.56,-67.02 -183.89,-100.55 -0.49,-0.27 -0.79,-0.78 -0.79,-1.34 0.01,-40.45 0.03,-80.95 0.03,-121.52 0.01,-40.57 0.01,-81.07 0,-121.52 0,-0.56 0.31,-1.07 0.8,-1.34 61.33,-33.51 122.64,-67.01 183.92,-100.49 0.1,-0.06 0.19,-0.08 0.28,-0.08 z M 399.27,432.28 c -2.63,3.94 -5.28,7.96 -7.95,12.06 -0.94,1.44 -1.42,2.99 -1.43,4.66 -0.11,12.63 -0.09,27.63 0.05,45.02 0.01,1.09 0.19,2.09 0.54,3 0.12,0.32 0.32,0.6 0.59,0.81 1.71,1.35 3.38,2.46 4.99,3.35 10.97,6.01 21.86,11.95 32.67,17.82 3.91,2.13 6.72,3.35 8.42,3.65 0.96,0.92 1.88,1.62 2.75,2.11 26.59,14.86 48.92,27.16 66.97,36.89 1.51,0.81 2.89,1.51 4.14,2.08 0.63,0.28 1.37,0.25 1.97,-0.1 7.78,-4.49 14.67,-8.31 20.66,-11.48 12.78,-6.75 25.5,-13.62 38.15,-20.61 3.93,-2.17 7.94071,-4.36929 12.31071,-6.34929 0.65,-0.3 0.83929,-1.06071 0.23929,-1.44071 -1.3,-0.81 -1.69,-1.62 -1.18,-2.43 l 3.53714,1.50143 c 0.44,0.2 0.80286,0.24857 1.22286,0.0186 24.69,-13.63 38.47,-21.25 41.32,-22.85 1.05,-0.59 2.15,-1.38 3.3,-2.35 0.42,-0.35 0.69,-0.85 0.77,-1.38 0.24,-1.56 0.36,-2.98 0.36,-4.27 0.02,-12.39 0.02,-26.45 -0.01,-42.2 -0.01,-2.33 -0.65,-4 -1.84,-5.85 -2.27,-3.54 -4.61,-6.92 -7.02,-10.15 -32.49,-51.09 -64.93,-102.12 -97.34,-153.09 -4.34,-6.84 -7.32,-12.37 -11.85,-18.66 -3.87,-5.38 -7.65,-0.32 -9.65,3.14 -5.07,8.78 -9.23,14.77 -16.16,25.62 -30.11,47.12 -60.28,94.28 -90.53,141.48 z"
       id="path38"
       sodipodi:nodetypes="sccccsccscccccccsccccccccccccccccccccccccccccccccc" />
    <path
       d="   M 571.22 432.17   C 580.63 446.76 589.89 461.31 598.98 475.81   C 600.61 478.42 600.75 482.78 596.56 482.64   C 593.07 482.53 580.05 482.51 557.50 482.60   C 555.85 482.61 554.96 482.11 554.84 481.10   L 513.21 414.19   C 512.80 413.54 511.85 413.53 511.44 414.18   L 468.64 481.72   L 468.02 482.15   C 467.69 482.38 467.29 482.51 466.89 482.51   L 426.22 482.51   C 425.77 482.51 425.33 482.34 425.00 482.03   C 423.19 480.32 423.01 478.37 424.44 476.16   C 434.11 461.30 443.63 446.33 452.98 431.25   C 471.25 402.21 489.39 373.09 507.40 343.89   C 508.70 341.78 510.15 339.89 511.76 338.21   C 511.96 338.00 512.32 338.03 512.48 338.28   C 514.05 340.72 515.77 342.79 517.37 345.36   C 535.38 374.41 553.33 403.34 571.22 432.17   Z"
       id="path39" />
    <path
       d="   M 615.1929 682.9952   C 615.34 676.02 621.33 670.48 628.5747 670.6328   C 635.82 670.78 641.57 676.57 641.4271 683.5448   C 641.28 690.52 635.29 696.06 628.0453 695.9072   C 620.80 695.76 615.05 689.97 615.1929 682.9952   Z"
       id="path40" />
    <path
       d="   M 724.2177 682.0165   C 724.90 688.96 719.64 695.16 712.4625 695.8597   C 705.29 696.56 698.92 691.51 698.2423 684.5635   C 697.56 677.62 702.82 671.42 709.9975 670.7203   C 717.17 670.02 723.54 675.07 724.2177 682.0165   Z"
       id="path41" />
    <path
       d="   M 542.46 714.29   C 554.54 703.59 567.99 701.71 582.81 708.66   C 594.01 713.91 602.12 726.84 603.57 739.22   C 605.10 752.37 602.17 763.69 594.76 773.19   C 581.79 789.81 557.58 792.35 542.39 776.91   C 542.10 776.62 541.61 776.79 541.57 777.20   L 540.84 785.01   C 540.82 785.23 540.63 785.39 540.41 785.39   L 522.41 785.39   C 522.11 785.39 521.87 785.15 521.87 784.86   L 521.87 674.45   C 521.87 674.28 522.00 674.15 522.17 674.15   L 541.51 674.15   C 541.86 674.15 542.14 674.43 542.14 674.78   L 542.14 714.14   C 542.14 714.31 542.34 714.40 542.46 714.29   Z   M 561.5689 722.7590   C 549.99 723.08 540.89 733.62 541.2482 746.2955   C 541.60 758.97 551.27 768.98 562.8511 768.6610   C 574.43 768.34 583.53 757.80 583.1718 745.1245   C 582.82 732.45 573.15 722.44 561.5689 722.7590   Z"
       id="path42" />
    <path
       d="   M 680.31 784.88   C 680.31 785.17 680.07 785.41 679.78 785.41   L 660.46 785.41   C 660.17 785.41 659.93 785.17 659.93 784.88   L 659.93 674.66   C 659.93 674.37 660.17 674.13 660.46 674.13   L 679.78 674.13   C 680.07 674.13 680.31 674.37 680.31 674.66   L 680.31 784.88   Z"
       id="path43" />
    <path
       d="   M 221.94 677.38   L 242.93 677.38   C 243.20 677.38 243.43 677.54 243.53 677.79   L 284.88 784.57   C 285.05 784.99 284.74 785.44 284.29 785.44   L 263.11 785.44   C 262.84 785.44 262.61 785.28 262.51 785.03   L 253.74 762.38   C 253.64 762.13 253.41 761.97 253.14 761.97   L 210.91 761.97   C 210.63 761.97 210.39 762.14 210.30 762.40   L 202.49 785.02   C 202.40 785.28 202.16 785.45 201.88 785.45   L 180.24 785.45   C 179.79 785.45 179.48 785.00 179.64 784.58   L 221.34 677.79   C 221.44 677.54 221.67 677.38 221.94 677.38   Z   M 217.48 742.60   C 217.40 742.81 217.55 743.04 217.78 743.04   L 246.50 743.04   C 246.73 743.04 246.88 742.81 246.80 742.60   L 232.44 704.19   C 232.34 703.91 231.94 703.91 231.84 704.19   L 217.48 742.60   Z"
       id="path44" />
    <path
       d="   M 439.44 730.61   C 439.16 730.71 438.86 730.50 438.86 730.20   L 438.86 712.45   C 438.86 712.17 439.03 711.92 439.29 711.82   C 444.91 709.63 448.92 708.15 451.32 707.40   C 468.68 701.94 494.56 703.45 501.30 723.33   C 502.53 726.98 503.10 732.65 503.01 740.35   C 502.84 754.17 502.83 768.99 502.98 784.81   C 502.98 785.12 502.73 785.38 502.42 785.38   L 484.08 785.38   C 483.76 785.38 483.50 785.12 483.50 784.80   L 483.50 777.34   C 483.50 776.83 482.86 776.60 482.54 777.00   C 481.11 778.79 480.12 780.03 478.58 781.15   C 467.61 789.19 447.17 789.93 437.61 778.56   C 429.35 768.75 429.59 753.64 439.05 744.98   C 444.99 739.53 456.93 737.08 464.75 736.94   C 470.08 736.84 476.02 736.97 482.55 737.34   C 482.90 737.36 483.19 737.08 483.17 736.74   C 482.21 714.12 455.25 721.67 443.80 728.93   C 443.58 729.07 443.35 729.19 443.10 729.28   L 439.44 730.61   Z   M 483.19 751.44   C 483.22 751.16 483.01 750.91 482.73 750.90   C 476.28 750.71 469.87 750.98 463.49 751.71   C 461.51 751.94 459.44 752.55 457.29 753.55   C 451.90 756.06 450.37 763.24 454.48 767.52   C 457.30 770.45 460.91 771.76 465.31 771.46   C 472.72 770.95 478.07 767.45 481.38 760.97   C 482.84 758.10 482.83 754.90 483.19 751.44   Z"
       id="path45" />
    <path
       d="   M 400.30 707.05   L 400.30 715.86   C 400.30 716.17 400.67 716.34 400.91 716.14   C 402.26 714.99 402.70 713.34 404.14 712.07   C 410.60 706.36 418.27 704.02 427.14 705.07   C 427.53 705.12 427.82 705.46 427.82 705.85   L 427.82 725.74   C 427.82 726.15 427.46 726.47 427.05 726.42   C 420.55 725.65 413.49 725.73 408.38 729.55   C 404.00 732.82 401.69 740.36 401.62 745.09   C 401.46 755.99 401.41 769.25 401.46 784.87   C 401.46 785.17 401.22 785.41 400.92 785.41   L 381.53 785.41   C 381.26 785.41 381.05 785.20 381.05 784.93   L 381.05 707.12   C 381.05 706.77 381.33 706.48 381.68 706.48   L 399.73 706.48   C 400.04 706.48 400.30 706.74 400.30 707.05   Z"
       id="path46" />
    <path
       d="   M 736.3043 743.7564   C 737.46 720.93 757.34 703.39 780.7135 704.5730   C 804.08 705.76 822.09 725.22 820.9357 748.0436   C 819.78 770.87 799.90 788.41 776.5265 787.2270   C 753.16 786.04 735.15 766.58 736.3043 743.7564   Z   M 778.6397 723.0106   C 766.77 722.93 757.07 733.10 756.9805 745.7399   C 756.89 758.38 766.45 768.69 778.3203 768.7694   C 790.19 768.85 799.89 758.68 799.9795 746.0401   C 800.07 733.40 790.51 723.09 778.6397 723.0106   Z"
       id="path47" />
    <path
       d="   M 292.29 706.48   L 311.13 706.48   C 311.50 706.48 311.80 706.78 311.80 707.15   C 311.82 724.64 311.84 739.92 311.85 752.99   C 311.85 756.84 312.59 760.87 315.13 763.90   C 317.64 766.90 321.59 768.59 325.45 768.50   C 333.27 768.33 338.58 764.35 341.37 756.57   C 341.89 755.10 342.15 751.06 342.16 744.43   C 342.16 743.25 342.12 730.78 342.04 707.01   C 342.04 706.72 342.28 706.48 342.57 706.48   L 362.02 706.48   C 362.33 706.48 362.58 706.73 362.58 707.04   L 362.58 784.95   C 362.58 785.19 362.39 785.38 362.15 785.38   L 343.92 785.38   C 343.53 785.38 343.21 785.06 343.21 784.67   L 343.21 776.39   C 343.21 775.97 342.68 775.80 342.43 776.13   C 334.17 787.29 319.42 789.95 307.06 784.74   C 295.72 779.96 291.53 768.13 291.50 756.24   C 291.47 745.29 291.50 728.94 291.57 707.19   C 291.58 706.80 291.90 706.48 292.29 706.48   Z"
       id="path48" />
    <path
       d="   M 638.95 785.08   C 638.95 785.26 638.80 785.41 638.62 785.41   L 618.74 785.41   C 618.56 785.41 618.41 785.26 618.41 785.08   L 618.41 706.90   C 618.41 706.72 618.56 706.57 618.74 706.57   L 638.62 706.57   C 638.80 706.57 638.95 706.72 638.95 706.90   L 638.95 785.08   Z"
       id="path49" />
    <path
       d="   M 721.6619 784.9979   C 721.66 785.24 721.46 785.44 721.2211 785.4372   L 701.4812 785.4027   C 701.24 785.40 701.04 785.20 701.0419 784.9619   L 701.1781 706.9421   C 701.18 706.70 701.38 706.50 701.6189 706.5028   L 721.3588 706.5373   C 721.60 706.54 721.80 706.74 721.7981 706.9781   L 721.6619 784.9979   Z"
       id="path50" />
  </g>
  <path
     fill="#98fdfa"
     d="   M 452.98 431.25   C 443.63 446.33 434.11 461.30 424.44 476.16   C 423.01 478.37 423.19 480.32 425.00 482.03   C 425.33 482.34 425.77 482.51 426.22 482.51   L 466.89 482.51   C 467.29 482.51 467.69 482.38 468.02 482.15   L 468.64 481.72   C 469.41 481.74 470.20 481.65 470.99 481.45   C 472.03 481.18 472.80 481.05 473.31 481.05   C 482.92 481.04 490.98 480.73 501.38 481.00   C 508.10 481.17 512.36 481.25 514.16 481.22   C 516.52 481.19 519.05 481.16 521.75 481.13   C 532.54 481.00 543.57 480.99 554.84 481.10   C 554.96 482.11 555.85 482.61 557.50 482.60   C 580.05 482.51 593.07 482.53 596.56 482.64   C 600.75 482.78 600.61 478.42 598.98 475.81   C 589.89 461.31 580.63 446.76 571.22 432.17   C 576.07 431.52 581.33 431.25 587.00 431.38   C 592.97 431.51 603.54 431.55 618.72 431.50   C 619.45 431.50 620.17 431.66 620.84 431.96   L 624.80 433.79   C 627.21 437.02 629.55 440.40 631.82 443.94   C 633.01 445.79 633.65 447.46 633.66 449.79   C 633.69 465.54 633.69 479.60 633.67 491.99   C 633.67 493.28 633.55 494.70 633.31 496.26   C 633.23 496.79 632.96 497.29 632.54 497.64   C 631.39 498.61 630.29 499.40 629.24 499.99   C 626.39 501.59 612.61 509.21 587.92 522.84   C 587.50 523.07 587.00 523.09 586.56 522.89   L 583.16 521.32   L 511.96 482.50   C 511.74 482.38 511.47 482.38 511.25 482.50   L 437.15 522.65   C 435.45 522.35 432.64 521.13 428.73 519.00   C 417.92 513.13 407.03 507.19 396.06 501.18   C 394.45 500.29 392.78 499.18 391.07 497.83   C 390.80 497.62 390.60 497.34 390.48 497.02   C 390.13 496.11 389.95 495.11 389.94 494.02   C 389.80 476.63 389.78 461.63 389.89 449.00   C 389.90 447.33 390.38 445.78 391.32 444.34   C 393.99 440.24 396.64 436.22 399.27 432.28   C 402.01 431.58 404.69 431.29 407.32 431.40   C 410.49 431.53 412.11 431.59 412.19 431.59   C 422.71 431.50 433.23 431.37 443.75 431.21   C 446.14 431.18 448.53 431.12 450.94 431.04   C 451.63 431.02 452.31 431.09 452.98 431.25   Z"
     id="path51" />
  <g
     fill="#2f3f80"
     id="g54">
    <path
       d="m 583.16,521.32 c 1.47847,0.67286 1.42465,0.6411 2.64336,1.21082 1.72327,0.75583 2.48218,0.22644 -1.5505,2.76632 -4.37,1.98 -8.53286,4.07286 -12.46286,6.24286 -12.65,6.99 -25.37,13.86 -38.15,20.61 -5.99,3.17 -12.88,6.99 -20.66,11.48 -0.6,0.35 -1.34,0.38 -1.97,0.1 -1.25,-0.57 -2.63,-1.27 -4.14,-2.08 -18.05,-9.73 -40.38,-22.03 -66.97,-36.89 -0.87,-0.49 -1.79,-1.19 -2.75,-2.11 l 74.1,-40.15 c 0.22,-0.12 0.49,-0.12 0.71,0 z"
       id="path52"
       sodipodi:nodetypes="ccccccccccccc" />
    <path
       d="   M 835.93 684.48   L 830.90 694.56   C 830.57 695.22 829.63 695.22 829.30 694.56   L 824.46 684.91   C 824.32 684.64 823.91 684.73 823.91 685.04   L 823.91 695.30   C 823.91 695.69 823.60 696.00 823.21 696.00   L 822.43 696.00   C 822.03 696.00 821.71 695.67 821.71 695.27   L 821.71 681.44   C 821.71 679.80 823.92 679.27 824.66 680.74   L 829.49 690.37   C 829.67 690.74 830.20 690.75 830.41 690.39   L 836.05 680.62   C 836.70 679.48 838.44 679.96 838.44 681.27   L 838.44 695.24   C 838.44 695.65 838.11 695.98 837.71 695.98   L 837.05 695.98   C 836.62 695.98 836.28 695.64 836.28 695.21   L 836.28 684.56   C 836.28 684.37 836.02 684.31 835.93 684.48   Z"
       id="path53" />
    <path
       d="   M 810.84 680.34   C 813.00 680.44 814.99 680.45 816.81 680.38   C 817.22 680.36 817.57 680.70 817.57 681.11   L 817.57 681.60   C 817.57 682.04 817.21 682.40 816.77 682.40   L 812.55 682.40   C 812.20 682.40 811.91 682.69 811.91 683.05   L 811.91 695.32   C 811.91 695.59 811.70 695.82 811.42 695.84   C 811.04 695.87 810.84 695.89 810.83 695.89   C 810.81 695.89 810.61 695.87 810.23 695.84   C 809.95 695.82 809.74 695.59 809.74 695.32   L 809.77 683.05   C 809.77 682.69 809.48 682.40 809.13 682.40   L 804.91 682.39   C 804.47 682.39 804.11 682.03 804.11 681.59   L 804.11 681.10   C 804.11 680.68 804.46 680.35 804.87 680.37   C 806.69 680.45 808.68 680.44 810.84 680.34   Z"
       id="path54" />
  </g>
</svg>
